<?xml version="1.0" encoding="UTF-8" standalone="no"?>
<!DOCTYPE svg PUBLIC "-//W3C//DTD SVG 1.1//EN"
 "http://www.w3.org/Graphics/SVG/1.1/DTD/svg11.dtd">
<!-- Generated by graphviz version 2.43.0 (0)
 -->
<!-- Title: /home/runner/work/incubator&#45;opendal/incubator&#45;opendal/bindings/cpp/include/opendal.hpp Pages: 1 -->
<svg width="944pt" height="117pt"
 viewBox="0.00 0.00 943.50 117.00" xmlns="http://www.w3.org/2000/svg" xmlns:xlink="http://www.w3.org/1999/xlink">
<g id="graph0" class="graph" transform="scale(1 1) rotate(0) translate(4 113)">
<title>/home/runner/work/incubator&#45;opendal/incubator&#45;opendal/bindings/cpp/include/opendal.hpp</title>
<polygon fill="white" stroke="transparent" points="-4,4 -4,-113 939.5,-113 939.5,4 -4,4"/>
<!-- Node1 -->
<g id="node1" class="node">
<title>Node1</title>
<g id="a_node1"><a xlink:title=" ">
<polygon fill="#bfbfbf" stroke="black" points="503,-67.5 503,-108.5 685,-108.5 685,-67.5 503,-67.5"/>
<text text-anchor="start" x="511" y="-96.5" font-family="Helvetica,sans-Serif" font-size="10.00">/home/runner/work/incubator</text>
<text text-anchor="start" x="511" y="-85.5" font-family="Helvetica,sans-Serif" font-size="10.00">&#45;opendal/incubator&#45;opendal</text>
<text text-anchor="middle" x="594" y="-74.5" font-family="Helvetica,sans-Serif" font-size="10.00">/bindings/cpp/include/opendal.hpp</text>
</a>
</g>
</g>
<!-- Node2 -->
<g id="node2" class="node">
<title>Node2</title>
<g id="a_node2"><a xlink:title=" ">
<polygon fill="white" stroke="#bfbfbf" points="0,-6 0,-25 50,-25 50,-6 0,-6"/>
<text text-anchor="middle" x="25" y="-13" font-family="Helvetica,sans-Serif" font-size="10.00">lib.rs.h</text>
</a>
</g>
</g>
<!-- Node1&#45;&gt;Node2 -->
<g id="edge1" class="edge">
<title>Node1&#45;&gt;Node2</title>
<path fill="none" stroke="midnightblue" d="M502.61,-85.69C394.91,-82.26 211.32,-70.5 59,-31 56.64,-30.39 54.23,-29.64 51.85,-28.81"/>
<polygon fill="midnightblue" stroke="midnightblue" points="52.88,-25.45 42.3,-25.06 50.32,-31.97 52.88,-25.45"/>
</g>
<!-- Node3 -->
<g id="node3" class="node">
<title>Node3</title>
<g id="a_node3"><a xlink:title=" ">
<polygon fill="white" stroke="#bfbfbf" points="68.5,-0.5 68.5,-30.5 193.5,-30.5 193.5,-0.5 68.5,-0.5"/>
<text text-anchor="start" x="76.5" y="-18.5" font-family="Helvetica,sans-Serif" font-size="10.00">boost/date_time/posix</text>
<text text-anchor="middle" x="131" y="-7.5" font-family="Helvetica,sans-Serif" font-size="10.00">_time/posix_time.hpp</text>
</a>
</g>
</g>
<!-- Node1&#45;&gt;Node3 -->
<g id="edge2" class="edge">
<title>Node1&#45;&gt;Node3</title>
<path fill="none" stroke="midnightblue" d="M502.67,-75.52C425.48,-65.45 311.76,-49.78 203.78,-31.25"/>
<polygon fill="midnightblue" stroke="midnightblue" points="204.13,-27.76 193.68,-29.51 202.94,-34.66 204.13,-27.76"/>
</g>
<!-- Node4 -->
<g id="node4" class="node">
<title>Node4</title>
<g id="a_node4"><a xlink:title=" ">
<polygon fill="white" stroke="#bfbfbf" points="211.5,-6 211.5,-25 374.5,-25 374.5,-6 211.5,-6"/>
<text text-anchor="middle" x="293" y="-13" font-family="Helvetica,sans-Serif" font-size="10.00">boost/iostreams/concepts.hpp</text>
</a>
</g>
</g>
<!-- Node1&#45;&gt;Node4 -->
<g id="edge3" class="edge">
<title>Node1&#45;&gt;Node4</title>
<path fill="none" stroke="midnightblue" d="M510.55,-67.46C455.24,-54.5 384.72,-37.98 339.22,-27.33"/>
<polygon fill="midnightblue" stroke="midnightblue" points="339.88,-23.89 329.35,-25.01 338.28,-30.7 339.88,-23.89"/>
</g>
<!-- Node5 -->
<g id="node5" class="node">
<title>Node5</title>
<g id="a_node5"><a xlink:title=" ">
<polygon fill="white" stroke="#bfbfbf" points="393,-6 393,-25 547,-25 547,-6 393,-6"/>
<text text-anchor="middle" x="470" y="-13" font-family="Helvetica,sans-Serif" font-size="10.00">boost/iostreams/stream.hpp</text>
</a>
</g>
</g>
<!-- Node1&#45;&gt;Node5 -->
<g id="edge4" class="edge">
<title>Node1&#45;&gt;Node5</title>
<path fill="none" stroke="midnightblue" d="M559.46,-67.36C538.62,-55.51 512.58,-40.71 493.98,-30.14"/>
<polygon fill="midnightblue" stroke="midnightblue" points="495.68,-27.07 485.26,-25.17 492.22,-33.16 495.68,-27.07"/>
</g>
<!-- Node6 -->
<g id="node6" class="node">
<title>Node6</title>
<g id="a_node6"><a xlink:title=" ">
<polygon fill="white" stroke="#bfbfbf" points="565,-6 565,-25 623,-25 623,-6 565,-6"/>
<text text-anchor="middle" x="594" y="-13" font-family="Helvetica,sans-Serif" font-size="10.00">memory</text>
</a>
</g>
</g>
<!-- Node1&#45;&gt;Node6 -->
<g id="edge5" class="edge">
<title>Node1&#45;&gt;Node6</title>
<path fill="none" stroke="midnightblue" d="M594,-67.36C594,-57.3 594,-45.1 594,-35.18"/>
<polygon fill="midnightblue" stroke="midnightblue" points="597.5,-35.17 594,-25.17 590.5,-35.17 597.5,-35.17"/>
</g>
<!-- Node7 -->
<g id="node7" class="node">
<title>Node7</title>
<g id="a_node7"><a xlink:title=" ">
<polygon fill="white" stroke="#bfbfbf" points="641,-6 641,-25 697,-25 697,-6 641,-6"/>
<text text-anchor="middle" x="669" y="-13" font-family="Helvetica,sans-Serif" font-size="10.00">optional</text>
</a>
</g>
</g>
<!-- Node1&#45;&gt;Node7 -->
<g id="edge6" class="edge">
<title>Node1&#45;&gt;Node7</title>
<path fill="none" stroke="midnightblue" d="M614.89,-67.36C626.75,-56.21 641.39,-42.46 652.44,-32.06"/>
<polygon fill="midnightblue" stroke="midnightblue" points="654.88,-34.57 659.77,-25.17 650.09,-29.47 654.88,-34.57"/>
</g>
<!-- Node8 -->
<g id="node8" class="node">
<title>Node8</title>
<g id="a_node8"><a xlink:title=" ">
<polygon fill="white" stroke="#bfbfbf" points="715,-6 715,-25 759,-25 759,-6 715,-6"/>
<text text-anchor="middle" x="737" y="-13" font-family="Helvetica,sans-Serif" font-size="10.00">string</text>
</a>
</g>
</g>
<!-- Node1&#45;&gt;Node8 -->
<g id="edge7" class="edge">
<title>Node1&#45;&gt;Node8</title>
<path fill="none" stroke="midnightblue" d="M633.83,-67.36C658.2,-55.35 688.71,-40.3 710.22,-29.7"/>
<polygon fill="midnightblue" stroke="midnightblue" points="711.99,-32.73 719.41,-25.17 708.89,-26.46 711.99,-32.73"/>
</g>
<!-- Node9 -->
<g id="node9" class="node">
<title>Node9</title>
<g id="a_node9"><a xlink:title=" ">
<polygon fill="white" stroke="#bfbfbf" points="777.5,-6 777.5,-25 870.5,-25 870.5,-6 777.5,-6"/>
<text text-anchor="middle" x="824" y="-13" font-family="Helvetica,sans-Serif" font-size="10.00">unordered_map</text>
</a>
</g>
</g>
<!-- Node1&#45;&gt;Node9 -->
<g id="edge8" class="edge">
<title>Node1&#45;&gt;Node9</title>
<path fill="none" stroke="midnightblue" d="M657.76,-67.46C699.14,-54.77 751.65,-38.68 786.46,-28.01"/>
<polygon fill="midnightblue" stroke="midnightblue" points="787.69,-31.29 796.23,-25.01 785.64,-24.6 787.69,-31.29"/>
</g>
<!-- Node10 -->
<g id="node10" class="node">
<title>Node10</title>
<g id="a_node10"><a xlink:title=" ">
<polygon fill="white" stroke="#bfbfbf" points="888.5,-6 888.5,-25 935.5,-25 935.5,-6 888.5,-6"/>
<text text-anchor="middle" x="912" y="-13" font-family="Helvetica,sans-Serif" font-size="10.00">vector</text>
</a>
</g>
</g>
<!-- Node1&#45;&gt;Node10 -->
<g id="edge9" class="edge">
<title>Node1&#45;&gt;Node10</title>
<path fill="none" stroke="midnightblue" d="M685.2,-74.68C742.05,-65.64 816.26,-51.37 880,-31 881.87,-30.4 883.78,-29.72 885.69,-29"/>
<polygon fill="midnightblue" stroke="midnightblue" points="887.15,-32.18 895.02,-25.08 884.44,-25.72 887.15,-32.18"/>
</g>
</g>
</svg>
